<svg xmlns="http://www.w3.org/2000/svg" viewBox="0 0 560 240" width="560" height="240" role="img" aria-label="Anem a peu — stencil tag"><title>Anem a peu — stencil tag</title><defs><mask id="st"><rect width="560" height="240" fill="#fff"/><rect x="0" y="116.9" width="560" height="3.4" fill="#000"/><rect x="0" y="99.9" width="560" height="3.4" fill="#000"/></mask></defs><g transform="rotate(-3 280 120)"><circle cx="374" cy="148" r="1.1" fill="#151515" opacity="0.30"/><circle cx="318" cy="160" r="1.3" fill="#151515" opacity="0.31"/><circle cx="162" cy="107" r="0.4" fill="#151515" opacity="0.26"/><circle cx="219" cy="102" r="1.3" fill="#151515" opacity="0.21"/><circle cx="269" cy="117" r="1.5" fill="#151515" opacity="0.40"/><circle cx="402" cy="79" r="0.4" fill="#151515" opacity="0.24"/><circle cx="196" cy="108" r="1.4" fill="#151515" opacity="0.26"/><circle cx="410" cy="154" r="0.5" fill="#151515" opacity="0.47"/><circle cx="95" cy="119" r="0.8" fill="#151515" opacity="0.30"/><circle cx="280" cy="116" r="1.4" fill="#151515" opacity="0.21"/><circle cx="283" cy="88" r="1.5" fill="#151515" opacity="0.46"/><circle cx="272" cy="57" r="1.0" fill="#151515" opacity="0.40"/><circle cx="379" cy="132" r="1.3" fill="#151515" opacity="0.20"/><circle cx="524" cy="79" r="0.9" fill="#151515" opacity="0.26"/><circle cx="133" cy="117" r="1.5" fill="#151515" opacity="0.27"/><circle cx="326" cy="110" r="1.2" fill="#151515" opacity="0.50"/><circle cx="102" cy="109" r="1.0" fill="#151515" opacity="0.40"/><circle cx="299" cy="148" r="1.0" fill="#151515" opacity="0.36"/><circle cx="301" cy="125" r="0.8" fill="#151515" opacity="0.47"/><circle cx="157" cy="141" r="0.7" fill="#151515" opacity="0.16"/><circle cx="500" cy="130" r="1.3" fill="#151515" opacity="0.26"/><circle cx="180" cy="67" r="1.4" fill="#151515" opacity="0.48"/><circle cx="-86" cy="158" r="1.5" fill="#151515" opacity="0.34"/><circle cx="386" cy="85" r="0.8" fill="#151515" opacity="0.21"/><circle cx="324" cy="95" r="0.5" fill="#151515" opacity="0.43"/><circle cx="289" cy="74" r="1.3" fill="#151515" opacity="0.14"/><circle cx="259" cy="133" r="0.9" fill="#151515" opacity="0.18"/><circle cx="380" cy="120" r="1.4" fill="#151515" opacity="0.49"/><circle cx="261" cy="74" r="0.7" fill="#151515" opacity="0.48"/><circle cx="42" cy="100" r="0.4" fill="#151515" opacity="0.20"/><circle cx="396" cy="63" r="1.4" fill="#151515" opacity="0.35"/><circle cx="100" cy="126" r="1.3" fill="#151515" opacity="0.24"/><circle cx="155" cy="103" r="1.2" fill="#151515" opacity="0.12"/><circle cx="128" cy="40" r="0.4" fill="#151515" opacity="0.35"/><circle cx="96" cy="62" r="1.0" fill="#151515" opacity="0.22"/><circle cx="-28" cy="150" r="1.4" fill="#151515" opacity="0.17"/><circle cx="316" cy="115" r="0.4" fill="#151515" opacity="0.29"/><circle cx="443" cy="155" r="1.1" fill="#151515" opacity="0.17"/><circle cx="145" cy="102" r="0.9" fill="#151515" opacity="0.20"/><circle cx="310" cy="125" r="0.8" fill="#151515" opacity="0.39"/><circle cx="224" cy="105" r="1.2" fill="#151515" opacity="0.45"/><circle cx="303" cy="56" r="0.4" fill="#151515" opacity="0.30"/><circle cx="484" cy="128" r="0.6" fill="#151515" opacity="0.39"/><circle cx="261" cy="154" r="0.7" fill="#151515" opacity="0.14"/><circle cx="173" cy="125" r="1.4" fill="#151515" opacity="0.23"/><circle cx="88" cy="107" r="1.4" fill="#151515" opacity="0.16"/><circle cx="131" cy="87" r="1.2" fill="#151515" opacity="0.49"/><circle cx="185" cy="151" r="1.0" fill="#151515" opacity="0.33"/><circle cx="502" cy="129" r="1.5" fill="#151515" opacity="0.25"/><circle cx="81" cy="194" r="0.5" fill="#151515" opacity="0.15"/><circle cx="495" cy="132" r="1.2" fill="#151515" opacity="0.29"/><circle cx="245" cy="104" r="1.1" fill="#151515" opacity="0.29"/><circle cx="127" cy="105" r="0.8" fill="#151515" opacity="0.21"/><circle cx="407" cy="118" r="0.7" fill="#151515" opacity="0.39"/><circle cx="357" cy="64" r="0.9" fill="#151515" opacity="0.21"/><circle cx="143" cy="131" r="1.1" fill="#151515" opacity="0.49"/><circle cx="403" cy="126" r="0.9" fill="#151515" opacity="0.39"/><circle cx="453" cy="75" r="1.1" fill="#151515" opacity="0.41"/><circle cx="129" cy="56" r="1.2" fill="#151515" opacity="0.38"/><circle cx="274" cy="175" r="0.8" fill="#151515" opacity="0.35"/><circle cx="428" cy="39" r="1.5" fill="#151515" opacity="0.12"/><circle cx="219" cy="132" r="0.8" fill="#151515" opacity="0.18"/><circle cx="211" cy="104" r="0.7" fill="#151515" opacity="0.48"/><circle cx="258" cy="75" r="0.5" fill="#151515" opacity="0.48"/><circle cx="238" cy="88" r="0.8" fill="#151515" opacity="0.36"/><circle cx="220" cy="87" r="1.4" fill="#151515" opacity="0.24"/><circle cx="258" cy="166" r="0.6" fill="#151515" opacity="0.38"/><circle cx="324" cy="147" r="0.7" fill="#151515" opacity="0.26"/><circle cx="411" cy="96" r="0.9" fill="#151515" opacity="0.35"/><circle cx="248" cy="126" r="0.8" fill="#151515" opacity="0.22"/><circle cx="399" cy="179" r="0.4" fill="#151515" opacity="0.43"/><circle cx="466" cy="89" r="0.4" fill="#151515" opacity="0.31"/><circle cx="451" cy="118" r="1.2" fill="#151515" opacity="0.21"/><circle cx="440" cy="110" r="0.5" fill="#151515" opacity="0.24"/><circle cx="-20" cy="126" r="0.8" fill="#151515" opacity="0.17"/><circle cx="332" cy="54" r="1.0" fill="#151515" opacity="0.14"/><circle cx="319" cy="136" r="1.0" fill="#151515" opacity="0.21"/><circle cx="352" cy="53" r="1.4" fill="#151515" opacity="0.46"/><circle cx="449" cy="112" r="0.5" fill="#151515" opacity="0.46"/><circle cx="260" cy="57" r="0.6" fill="#151515" opacity="0.14"/><circle cx="341" cy="70" r="1.1" fill="#151515" opacity="0.30"/><circle cx="304" cy="82" r="0.7" fill="#151515" opacity="0.25"/><circle cx="207" cy="148" r="1.4" fill="#151515" opacity="0.15"/><circle cx="418" cy="123" r="1.1" fill="#151515" opacity="0.19"/><circle cx="259" cy="118" r="0.4" fill="#151515" opacity="0.31"/><circle cx="179" cy="68" r="0.6" fill="#151515" opacity="0.16"/><circle cx="423" cy="92" r="0.8" fill="#151515" opacity="0.38"/><circle cx="241" cy="72" r="0.5" fill="#151515" opacity="0.43"/><circle cx="274" cy="116" r="0.8" fill="#151515" opacity="0.32"/><circle cx="205" cy="95" r="1.2" fill="#151515" opacity="0.31"/><circle cx="408" cy="158" r="1.3" fill="#151515" opacity="0.46"/><circle cx="223" cy="89" r="1.3" fill="#151515" opacity="0.46"/><circle cx="-34" cy="94" r="1.5" fill="#151515" opacity="0.27"/><circle cx="572" cy="83" r="1.3" fill="#151515" opacity="0.12"/><circle cx="150" cy="141" r="1.1" fill="#151515" opacity="0.41"/><circle cx="215" cy="94" r="1.4" fill="#151515" opacity="0.32"/><circle cx="335" cy="94" r="1.5" fill="#151515" opacity="0.33"/><circle cx="302" cy="59" r="1.4" fill="#151515" opacity="0.26"/><circle cx="389" cy="123" r="0.6" fill="#151515" opacity="0.33"/><circle cx="318" cy="82" r="0.5" fill="#151515" opacity="0.13"/><circle cx="102" cy="126" r="0.4" fill="#151515" opacity="0.37"/><circle cx="281" cy="122" r="1.4" fill="#151515" opacity="0.32"/><circle cx="398" cy="86" r="0.5" fill="#151515" opacity="0.21"/><circle cx="87" cy="128" r="1.2" fill="#151515" opacity="0.41"/><circle cx="203" cy="89" r="0.9" fill="#151515" opacity="0.26"/><circle cx="155" cy="110" r="1.0" fill="#151515" opacity="0.29"/><circle cx="519" cy="120" r="1.0" fill="#151515" opacity="0.43"/><circle cx="246" cy="60" r="1.5" fill="#151515" opacity="0.26"/><circle cx="255" cy="110" r="1.1" fill="#151515" opacity="0.34"/><circle cx="-167" cy="60" r="0.6" fill="#151515" opacity="0.21"/><circle cx="240" cy="53" r="0.9" fill="#151515" opacity="0.14"/><circle cx="85" cy="149" r="0.9" fill="#151515" opacity="0.30"/><circle cx="114" cy="135" r="1.1" fill="#151515" opacity="0.38"/><circle cx="420" cy="71" r="0.8" fill="#151515" opacity="0.22"/><circle cx="314" cy="56" r="1.4" fill="#151515" opacity="0.20"/><circle cx="435" cy="56" r="0.5" fill="#151515" opacity="0.24"/><circle cx="212" cy="95" r="1.3" fill="#151515" opacity="0.22"/><circle cx="217" cy="85" r="0.6" fill="#151515" opacity="0.20"/><circle cx="44" cy="109" r="0.6" fill="#151515" opacity="0.38"/><circle cx="162" cy="145" r="0.8" fill="#151515" opacity="0.19"/><circle cx="296" cy="116" r="1.2" fill="#151515" opacity="0.28"/><circle cx="471" cy="151" r="1.1" fill="#151515" opacity="0.13"/><circle cx="235" cy="68" r="0.9" fill="#151515" opacity="0.31"/><circle cx="397" cy="101" r="1.1" fill="#151515" opacity="0.36"/><circle cx="179" cy="129" r="1.2" fill="#151515" opacity="0.36"/><circle cx="103" cy="118" r="0.6" fill="#151515" opacity="0.42"/><circle cx="464" cy="113" r="0.9" fill="#151515" opacity="0.20"/><circle cx="107" cy="87" r="0.5" fill="#151515" opacity="0.31"/><circle cx="393" cy="154" r="0.8" fill="#151515" opacity="0.24"/><circle cx="274" cy="117" r="0.6" fill="#151515" opacity="0.18"/><circle cx="72" cy="67" r="0.6" fill="#151515" opacity="0.16"/><circle cx="197" cy="105" r="0.8" fill="#151515" opacity="0.41"/><circle cx="328" cy="153" r="1.0" fill="#151515" opacity="0.15"/><circle cx="274" cy="149" r="0.5" fill="#151515" opacity="0.20"/><circle cx="36" cy="82" r="1.0" fill="#151515" opacity="0.37"/><circle cx="384" cy="109" r="0.7" fill="#151515" opacity="0.47"/><circle cx="112" cy="149" r="0.4" fill="#151515" opacity="0.31"/><circle cx="452" cy="76" r="1.0" fill="#151515" opacity="0.19"/><circle cx="316" cy="103" r="1.5" fill="#151515" opacity="0.41"/><circle cx="232" cy="72" r="0.6" fill="#151515" opacity="0.25"/><circle cx="160" cy="70" r="0.8" fill="#151515" opacity="0.42"/><circle cx="374" cy="116" r="0.5" fill="#151515" opacity="0.24"/><circle cx="327" cy="60" r="0.6" fill="#151515" opacity="0.24"/><circle cx="422" cy="137" r="0.9" fill="#151515" opacity="0.21"/><circle cx="68" cy="151" r="0.9" fill="#151515" opacity="0.38"/><circle cx="155" cy="84" r="1.0" fill="#151515" opacity="0.26"/><circle cx="317" cy="141" r="0.7" fill="#151515" opacity="0.25"/><circle cx="385" cy="169" r="0.9" fill="#151515" opacity="0.20"/><circle cx="360" cy="112" r="1.4" fill="#151515" opacity="0.25"/><circle cx="215" cy="89" r="1.1" fill="#151515" opacity="0.29"/><circle cx="250" cy="71" r="0.8" fill="#151515" opacity="0.23"/><circle cx="46" cy="76" r="1.2" fill="#151515" opacity="0.30"/><circle cx="125" cy="164" r="1.3" fill="#151515" opacity="0.18"/><circle cx="161" cy="61" r="1.1" fill="#151515" opacity="0.49"/><circle cx="341" cy="92" r="1.5" fill="#151515" opacity="0.24"/><circle cx="-14" cy="164" r="0.6" fill="#151515" opacity="0.27"/><circle cx="186" cy="91" r="0.7" fill="#151515" opacity="0.42"/><circle cx="89" cy="76" r="1.3" fill="#151515" opacity="0.45"/><circle cx="470" cy="73" r="1.5" fill="#151515" opacity="0.31"/><circle cx="215" cy="74" r="1.5" fill="#151515" opacity="0.37"/><circle cx="78" cy="127" r="0.7" fill="#151515" opacity="0.17"/><circle cx="208" cy="119" r="0.4" fill="#151515" opacity="0.16"/><circle cx="37" cy="122" r="0.5" fill="#151515" opacity="0.36"/><circle cx="393" cy="131" r="0.7" fill="#151515" opacity="0.29"/><circle cx="231" cy="78" r="0.8" fill="#151515" opacity="0.40"/><circle cx="362" cy="126" r="1.2" fill="#151515" opacity="0.44"/><circle cx="372" cy="105" r="1.1" fill="#151515" opacity="0.24"/><circle cx="184" cy="53" r="0.5" fill="#151515" opacity="0.25"/><circle cx="385" cy="97" r="1.1" fill="#151515" opacity="0.43"/><circle cx="221" cy="160" r="0.4" fill="#151515" opacity="0.25"/><circle cx="329" cy="132" r="0.6" fill="#151515" opacity="0.13"/><circle cx="293" cy="91" r="1.0" fill="#151515" opacity="0.33"/><circle cx="424" cy="61" r="1.1" fill="#151515" opacity="0.18"/><circle cx="269" cy="94" r="1.4" fill="#151515" opacity="0.24"/><circle cx="263" cy="129" r="0.8" fill="#151515" opacity="0.42"/><circle cx="407" cy="69" r="1.2" fill="#151515" opacity="0.21"/><circle cx="213" cy="131" r="0.9" fill="#151515" opacity="0.45"/><circle cx="324" cy="108" r="1.5" fill="#151515" opacity="0.47"/><circle cx="56" cy="119" r="1.3" fill="#151515" opacity="0.19"/><circle cx="-31" cy="52" r="1.4" fill="#151515" opacity="0.47"/><circle cx="456" cy="132" r="0.9" fill="#151515" opacity="0.47"/><circle cx="353" cy="141" r="0.5" fill="#151515" opacity="0.43"/><circle cx="259" cy="101" r="0.7" fill="#151515" opacity="0.17"/><circle cx="135" cy="76" r="0.5" fill="#151515" opacity="0.48"/><circle cx="412" cy="101" r="1.0" fill="#151515" opacity="0.26"/><circle cx="154" cy="89" r="0.9" fill="#151515" opacity="0.40"/><circle cx="311" cy="131" r="1.2" fill="#151515" opacity="0.21"/><circle cx="545" cy="136" r="0.6" fill="#151515" opacity="0.28"/><circle cx="223" cy="130" r="0.8" fill="#151515" opacity="0.32"/><circle cx="394" cy="133" r="0.5" fill="#151515" opacity="0.15"/><circle cx="296" cy="129" r="0.8" fill="#151515" opacity="0.23"/><circle cx="371" cy="70" r="0.9" fill="#151515" opacity="0.41"/><circle cx="217" cy="84" r="1.1" fill="#151515" opacity="0.40"/><circle cx="36" cy="97" r="1.1" fill="#151515" opacity="0.47"/><circle cx="246" cy="153" r="1.5" fill="#151515" opacity="0.32"/><circle cx="317" cy="100" r="1.2" fill="#151515" opacity="0.22"/><circle cx="265" cy="77" r="1.0" fill="#151515" opacity="0.21"/><circle cx="253" cy="168" r="1.1" fill="#151515" opacity="0.36"/><circle cx="352" cy="125" r="1.5" fill="#151515" opacity="0.20"/><circle cx="55" cy="97" r="1.0" fill="#151515" opacity="0.33"/><circle cx="505" cy="98" r="0.7" fill="#151515" opacity="0.28"/><circle cx="79" cy="130" r="1.1" fill="#151515" opacity="0.22"/><circle cx="212" cy="78" r="0.4" fill="#151515" opacity="0.23"/><circle cx="199" cy="122" r="1.1" fill="#151515" opacity="0.50"/><circle cx="444" cy="90" r="1.3" fill="#151515" opacity="0.31"/><circle cx="11" cy="75" r="0.5" fill="#151515" opacity="0.26"/><circle cx="175" cy="127" r="0.9" fill="#151515" opacity="0.14"/><circle cx="114" cy="40" r="0.7" fill="#151515" opacity="0.19"/><circle cx="138" cy="154" r="0.6" fill="#151515" opacity="0.41"/><circle cx="353" cy="144" r="1.2" fill="#151515" opacity="0.38"/><circle cx="568" cy="146" r="1.3" fill="#151515" opacity="0.30"/><circle cx="385" cy="77" r="0.6" fill="#151515" opacity="0.27"/><circle cx="332" cy="78" r="0.4" fill="#151515" opacity="0.18"/><circle cx="338" cy="145" r="1.1" fill="#151515" opacity="0.29"/><circle cx="-31" cy="152" r="0.8" fill="#151515" opacity="0.38"/><circle cx="312" cy="143" r="0.6" fill="#151515" opacity="0.16"/><circle cx="229" cy="121" r="0.8" fill="#151515" opacity="0.37"/><circle cx="27" cy="92" r="0.9" fill="#151515" opacity="0.15"/><circle cx="245" cy="78" r="1.2" fill="#151515" opacity="0.49"/><circle cx="160" cy="105" r="0.8" fill="#151515" opacity="0.31"/><circle cx="238" cy="121" r="0.8" fill="#151515" opacity="0.37"/><circle cx="361" cy="62" r="1.4" fill="#151515" opacity="0.42"/><circle cx="94" cy="131" r="0.5" fill="#151515" opacity="0.42"/><circle cx="236" cy="85" r="0.9" fill="#151515" opacity="0.22"/><circle cx="306" cy="78" r="1.3" fill="#151515" opacity="0.47"/><circle cx="289" cy="79" r="0.8" fill="#151515" opacity="0.48"/><circle cx="340" cy="97" r="0.8" fill="#151515" opacity="0.42"/><circle cx="270" cy="84" r="0.9" fill="#151515" opacity="0.49"/><circle cx="360" cy="121" r="1.1" fill="#151515" opacity="0.46"/><circle cx="414" cy="97" r="1.3" fill="#151515" opacity="0.49"/><circle cx="217" cy="127" r="0.7" fill="#151515" opacity="0.42"/><circle cx="378" cy="137" r="1.4" fill="#151515" opacity="0.20"/><circle cx="146" cy="81" r="1.5" fill="#151515" opacity="0.32"/><circle cx="-37" cy="112" r="1.2" fill="#151515" opacity="0.18"/><circle cx="312" cy="79" r="1.5" fill="#151515" opacity="0.49"/><circle cx="120" cy="109" r="0.6" fill="#151515" opacity="0.22"/><circle cx="288" cy="126" r="1.2" fill="#151515" opacity="0.14"/><circle cx="111" cy="84" r="1.2" fill="#151515" opacity="0.34"/><circle cx="367" cy="97" r="0.5" fill="#151515" opacity="0.34"/><circle cx="214" cy="197" r="1.4" fill="#151515" opacity="0.38"/><g mask="url(#st)"><path fill="#151515" d="M72.63709269330053 140.0 67.93308864505467 126.4524683410519H47.72468725379042L43.02068320554456 140.0H31.919233651684312L51.26209829807132 86.9764663681726H64.35804556838781L83.62564615000288 140.0ZM57.810071933229565 95.14261739592742 57.584279738913764 95.97052210841869Q57.20795941505409 97.3252752743135 56.68111096165055 99.05634876406798Q56.154262508247015 100.78742225382246 50.208401391264246 118.09815715136725H65.44937450758084L60.21852200593145 102.85718403505064L58.60034461333487 97.73922763055913ZM121.56024007635298 140.0 98.4541721913693 99.16924486122588Q99.1315487743167 105.11510597820865 99.1315487743167 108.72778108726148V140.0H89.27195628919335V86.9764663681726H101.95395120326421L125.39870737972161 128.1459097984204Q124.72133079677421 122.46347290813941 124.72133079677421 117.7971008922795V86.9764663681726H134.58092328189755V140.0ZM143.38832414150926 140.0V86.9764663681726H185.0846160251606V95.55656975217305H154.48977369536948V108.87830921680535H182.78906204961663V117.45841260080581H154.48977369536948V131.41989661599953H186.62752935298525V140.0ZM237.2817502257922 140.0V107.86224434238423Q237.2817502257922 106.7709154031912 237.30056624198517 105.67958646399816Q237.31938225817817 104.58825752480512 237.65807054965185 96.30921039989238Q234.9861962502482 106.4322271117175 233.70670714912532 110.42122254462998L224.14817092308974 140.0H216.24544412203667L206.68690789600106 110.42122254462998L202.6602804307026 96.30921039989238Q203.11186481933422 105.03984191343672 203.11186481933422 107.86224434238423V140.0H193.2522723342109V86.9764663681726H208.1169251266678L217.60019728793148 116.63050788831453L218.42810200042277 119.49054234964802L220.23443955494918 126.60299647059577L222.60525759526507 118.09815715136725L232.35195398323052 86.9764663681726H247.14134271091552V140.0ZM313.2638341756503 140.0 308.55983012740444 126.4524683410519H288.3514287361402L283.64742468789433 140.0H272.54597513403405L291.88883978042105 86.9764663681726H304.98478705073757L324.2523876323526 140.0ZM298.4368134155793 95.14261739592742 298.21102122126354 95.97052210841869Q297.8347008974039 97.3252752743135 297.30785244400033 99.05634876406798Q296.7810039905968 100.78742225382246 290.835142873614 118.09815715136725H306.0761159899306L300.8452634882812 102.85718403505064L299.2270860956846 97.73922763055913ZM393.38544168796477 103.76035281231384Q393.38544168796477 108.87830921680535 391.0522556800348 112.90493668210381Q388.71906967210487 116.93156414740227 384.37256993152573 119.13303804198134Q380.02607019094654 121.3345119365604 374.0425770415778 121.3345119365604H360.87136570648937V140.0H349.7699161526291V86.9764663681726H373.59099265294617Q383.1118968465958 86.9764663681726 388.2486692672803 91.36059814113774Q393.38544168796477 95.74472991410289 393.38544168796477 103.76035281231384ZM382.2087280693326 103.94851297424367Q382.2087280693326 95.59420178455902 372.34913558420925 95.59420178455902H360.87136570648937V112.79204058494591H372.650191843297Q377.241299794385 112.79204058494591 379.7250139318588 110.5153026255949Q382.2087280693326 108.2385646662439 382.2087280693326 103.94851297424367ZM399.6338643453307 140.0V86.9764663681726H441.3301562289821V95.55656975217305H410.735313899191V108.87830921680535H439.03460225343815V117.45841260080581H410.735313899191V131.41989661599953H442.87306955680674V140.0ZM471.550183516209 140.75264064771935Q460.5992620918926 140.75264064771935 454.7851130882607 135.40889204891204Q448.9709640846288 130.06514345010473 448.9709640846288 120.13028690020946V86.9764663681726H460.0724136384891V119.26475015533222Q460.0724136384891 125.5492995637887 463.0641602131734 128.80447036517484Q466.0559067878578 132.05964116656097 471.85123977529673 132.05964116656097Q477.7971008922795 132.05964116656097 480.9958236450867 128.65394223563095Q484.1945463978939 125.24824330470096 484.1945463978939 118.88842983147255V86.9764663681726H495.29599595175415V119.56580641441995Q495.29599595175415 129.6511910938591 489.0678945918766 135.2019158707892Q482.83979323199907 140.75264064771935 471.550183516209 140.75264064771935Z"/></g><path d="M50 139v20" stroke="#151515" stroke-width="2.2" stroke-linecap="round" opacity=".8"/><path d="M206 139v30" stroke="#151515" stroke-width="2.4" stroke-linecap="round" opacity=".8"/><path d="M318 139v14" stroke="#151515" stroke-width="1.8" stroke-linecap="round" opacity=".8"/><path d="M470 139v24" stroke="#151515" stroke-width="2" stroke-linecap="round" opacity=".8"/><circle cx="524" cy="128" r="9" fill="#E45E40"/><path fill="#5C5851" d="M32.802734375 196.0V187.744140625H34.53125V194.6640625H38.9609375V196.0ZM42.5328125 196.0V187.744140625H49.025V189.080078125H44.261328125V191.154296875H48.667578125V192.490234375H44.261328125V194.6640625H49.265234375V196.0ZM56.66328125 189.080078125V196.0H54.934765625V189.080078125H52.26875V187.744140625H59.33515625V189.080078125ZM63.938281249999996 190.73828125H62.655078124999996L62.502734374999996 187.744140625H64.09648437499999ZM74.652734375 193.62109375Q74.652734375 194.833984375 73.7533203125 195.4755859375Q72.85390625 196.1171875 71.113671875 196.1171875Q69.52578125 196.1171875 68.6234375 195.5546875Q67.72109375 194.9921875 67.46328125 193.849609375L69.133203125 193.57421875Q69.303125 194.23046875 69.7953125 194.5263671875Q70.2875 194.822265625 71.160546875 194.822265625Q72.97109375 194.822265625 72.97109375 193.720703125Q72.97109375 193.369140625 72.7630859375 193.140625Q72.555078125 192.912109375 72.1771484375 192.759765625Q71.79921875 192.607421875 70.726953125 192.390625Q69.801171875 192.173828125 69.437890625 192.0419921875Q69.074609375 191.91015625 68.781640625 191.7314453125Q68.488671875 191.552734375 68.28359375 191.30078125Q68.078515625 191.048828125 67.9642578125 190.708984375Q67.85 190.369140625 67.85 189.9296875Q67.85 188.810546875 68.6908203125 188.2158203125Q69.531640625 187.62109375 71.137109375 187.62109375Q72.672265625 187.62109375 73.4427734375 188.1015625Q74.21328125 188.58203125 74.4359375 189.689453125L72.76015625 189.91796875Q72.63125 189.384765625 72.2357421875 189.115234375Q71.840234375 188.845703125 71.101953125 188.845703125Q69.531640625 188.845703125 69.531640625 189.830078125Q69.531640625 190.15234375 69.6986328125 190.357421875Q69.865625 190.5625 70.19375 190.7060546875Q70.521875 190.849609375 71.523828125 191.06640625Q72.71328125 191.318359375 73.2259765625 191.5322265625Q73.738671875 191.74609375 74.0375 192.0302734375Q74.336328125 192.314453125 74.49453125 192.7099609375Q74.652734375 193.10546875 74.652734375 193.62109375ZM87.978125 194.763671875Q88.651953125 194.763671875 89.284765625 194.5673828125Q89.917578125 194.37109375 90.26328125 194.06640625V192.923828125H88.24765625V191.646484375H91.8453125V194.681640625Q91.1890625 195.35546875 90.1373046875 195.736328125Q89.085546875 196.1171875 87.93125 196.1171875Q85.915625 196.1171875 84.831640625 195.0009765625Q83.74765625 193.884765625 83.74765625 191.833984375Q83.74765625 189.794921875 84.8375 188.7080078125Q85.92734375 187.62109375 87.972265625 187.62109375Q90.878515625 187.62109375 91.66953125 189.771484375L90.07578125 190.251953125Q89.81796875 189.625 89.2671875 189.302734375Q88.71640625 188.98046875 87.972265625 188.98046875Q86.753515625 188.98046875 86.120703125 189.71875Q85.487890625 190.45703125 85.487890625 191.833984375Q85.487890625 193.234375 86.1412109375 193.9990234375Q86.79453125 194.763671875 87.978125 194.763671875ZM103.81953125000001 191.833984375Q103.81953125000001 193.123046875 103.30976562500001 194.1015625Q102.80000000000001 195.080078125 101.85078125000001 195.5986328125Q100.90156250000001 196.1171875 99.63593750000001 196.1171875Q97.69062500000001 196.1171875 96.58613281250001 194.9716796875Q95.48164062500001 193.826171875 95.48164062500001 191.833984375Q95.48164062500001 189.84765625 96.58320312500001 188.734375Q97.68476562500001 187.62109375 99.64765625000001 187.62109375Q101.61054687500001 187.62109375 102.71503906250001 188.74609375Q103.81953125000001 189.87109375 103.81953125000001 191.833984375ZM102.05585937500001 191.833984375Q102.05585937500001 190.498046875 101.42304687500001 189.7392578125Q100.79023437500001 188.98046875 99.64765625000001 188.98046875Q98.48750000000001 188.98046875 97.85468750000001 189.7333984375Q97.22187500000001 190.486328125 97.22187500000001 191.833984375Q97.22187500000001 193.193359375 97.86933593750001 193.9755859375Q98.51679687500001 194.7578125 99.63593750000001 194.7578125Q100.79609375000001 194.7578125 101.42597656250001 193.99609375Q102.05585937500001 193.234375 102.05585937500001 191.833984375ZM121.28750000000002 191.833984375Q121.28750000000002 193.123046875 120.77773437500002 194.1015625Q120.26796875000002 195.080078125 119.31875000000002 195.5986328125Q118.36953125000002 196.1171875 117.10390625000002 196.1171875Q115.15859375000002 196.1171875 114.05410156250002 194.9716796875Q112.94960937500002 193.826171875 112.94960937500002 191.833984375Q112.94960937500002 189.84765625 114.05117187500002 188.734375Q115.15273437500002 187.62109375 117.11562500000002 187.62109375Q119.07851562500002 187.62109375 120.18300781250002 188.74609375Q121.28750000000002 189.87109375 121.28750000000002 191.833984375ZM119.52382812500002 191.833984375Q119.52382812500002 190.498046875 118.89101562500002 189.7392578125Q118.25820312500002 188.98046875 117.11562500000002 188.98046875Q115.95546875000002 188.98046875 115.32265625000002 189.7333984375Q114.68984375000002 190.486328125 114.68984375000002 191.833984375Q114.68984375000002 193.193359375 115.33730468750002 193.9755859375Q115.98476562500002 194.7578125 117.10390625000002 194.7578125Q118.26406250000002 194.7578125 118.89394531250002 193.99609375Q119.52382812500002 193.234375 119.52382812500002 191.833984375ZM130.02148437500003 196.0 126.42382812500003 189.642578125Q126.52929687500003 190.568359375 126.52929687500003 191.130859375V196.0H124.99414062500003V187.744140625H126.96875000000003L130.61914062500003 194.154296875Q130.51367187500003 193.26953125 130.51367187500003 192.54296875V187.744140625H132.04882812500003V196.0ZM143.52265625000004 189.080078125V191.634765625H147.74726562500004V192.970703125H143.52265625000004V196.0H141.79414062500004V187.744140625H147.88203125000004V189.080078125ZM159.55156250000005 191.833984375Q159.55156250000005 193.123046875 159.04179687500005 194.1015625Q158.53203125000005 195.080078125 157.58281250000005 195.5986328125Q156.63359375000005 196.1171875 155.36796875000005 196.1171875Q153.42265625000005 196.1171875 152.31816406250005 194.9716796875Q151.21367187500005 193.826171875 151.21367187500005 191.833984375Q151.21367187500005 189.84765625 152.31523437500005 188.734375Q153.41679687500005 187.62109375 155.37968750000005 187.62109375Q157.34257812500005 187.62109375 158.44707031250005 188.74609375Q159.55156250000005 189.87109375 159.55156250000005 191.833984375ZM157.78789062500005 191.833984375Q157.78789062500005 190.498046875 157.15507812500005 189.7392578125Q156.52226562500005 188.98046875 155.37968750000005 188.98046875Q154.21953125000005 188.98046875 153.58671875000005 189.7333984375Q152.95390625000005 190.486328125 152.95390625000005 191.833984375Q152.95390625000005 193.193359375 153.60136718750005 193.9755859375Q154.24882812500005 194.7578125 155.36796875000005 194.7578125Q156.52812500000005 194.7578125 157.15800781250005 193.99609375Q157.78789062500005 193.234375 157.78789062500005 191.833984375ZM171.28554687500005 191.833984375Q171.28554687500005 193.123046875 170.77578125000005 194.1015625Q170.26601562500005 195.080078125 169.31679687500005 195.5986328125Q168.36757812500005 196.1171875 167.10195312500005 196.1171875Q165.15664062500005 196.1171875 164.05214843750005 194.9716796875Q162.94765625000005 193.826171875 162.94765625000005 191.833984375Q162.94765625000005 189.84765625 164.04921875000005 188.734375Q165.15078125000005 187.62109375 167.11367187500005 187.62109375Q169.07656250000005 187.62109375 170.18105468750005 188.74609375Q171.28554687500005 189.87109375 171.28554687500005 191.833984375ZM169.52187500000005 191.833984375Q169.52187500000005 190.498046875 168.88906250000005 189.7392578125Q168.25625000000005 188.98046875 167.11367187500005 188.98046875Q165.95351562500005 188.98046875 165.32070312500005 189.7333984375Q164.68789062500005 190.486328125 164.68789062500005 191.833984375Q164.68789062500005 193.193359375 165.33535156250005 193.9755859375Q165.98281250000005 194.7578125 167.10195312500005 194.7578125Q168.26210937500005 194.7578125 168.89199218750005 193.99609375Q169.52187500000005 193.234375 169.52187500000005 191.833984375ZM178.71875000000006 189.080078125V196.0H176.99023437500006V189.080078125H174.32421875000006V187.744140625H181.39062500000006V189.080078125Z"/></g></svg>
