<svg xmlns="http://www.w3.org/2000/svg" viewBox="0 0 1200 800" width="1200" height="800" role="img" aria-label="Sagrada Família — vertical light" preserveAspectRatio="xMidYMid slice"><title>Sagrada Família — vertical light</title><rect width="1200" height="800" fill="#E8E0D4"/><rect x="20" y="303" width="3" height="497" fill="#151515" fill-opacity=".07"/><rect x="26" y="360" width="10" height="41" fill="#E5B83F" fill-opacity="0.32"/><rect x="43" y="108" width="2" height="692" fill="#151515" fill-opacity=".07"/><rect x="70" y="467" width="6" height="333" fill="#151515" fill-opacity=".07"/><rect x="91" y="435" width="2" height="365" fill="#151515" fill-opacity=".07"/><rect x="96" y="489" width="10" height="116" fill="#E5B83F" fill-opacity="0.36"/><rect x="107" y="81" width="2" height="719" fill="#151515" fill-opacity=".07"/><rect x="112" y="195" width="6" height="149" fill="#E5B83F" fill-opacity="0.33"/><rect x="140" y="270" width="2" height="530" fill="#151515" fill-opacity=".07"/><rect x="172" y="262" width="2" height="538" fill="#151515" fill-opacity=".07"/><rect x="194" y="242" width="6" height="558" fill="#151515" fill-opacity=".07"/><rect x="219" y="220" width="2" height="580" fill="#151515" fill-opacity=".07"/><rect x="253" y="208" width="3" height="592" fill="#151515" fill-opacity=".07"/><rect x="284" y="347" width="3" height="453" fill="#151515" fill-opacity=".07"/><rect x="290" y="404" width="14" height="66" fill="#E5B83F" fill-opacity="0.31"/><rect x="313" y="450" width="6" height="350" fill="#151515" fill-opacity=".07"/><rect x="336" y="281" width="2" height="519" fill="#151515" fill-opacity=".07"/><rect x="351" y="438" width="2" height="362" fill="#151515" fill-opacity=".07"/><rect x="369" y="501" width="3" height="299" fill="#151515" fill-opacity=".07"/><rect x="375" y="555" width="14" height="70" fill="#E5B83F" fill-opacity="0.34"/><rect x="394" y="356" width="3" height="444" fill="#151515" fill-opacity=".07"/><rect x="417" y="61" width="6" height="739" fill="#151515" fill-opacity=".07"/><rect x="451" y="308" width="3" height="492" fill="#151515" fill-opacity=".07"/><rect x="457" y="350" width="14" height="124" fill="#E5B83F" fill-opacity="0.18"/><rect x="470" y="155" width="3" height="645" fill="#151515" fill-opacity=".07"/><rect x="476" y="225" width="6" height="127" fill="#E5B83F" fill-opacity="0.32"/><rect x="504" y="41" width="2" height="759" fill="#151515" fill-opacity=".07"/><rect x="509" y="139" width="10" height="75" fill="#E5B83F" fill-opacity="0.32"/><rect x="523" y="276" width="6" height="524" fill="#151515" fill-opacity=".07"/><rect x="544" y="198" width="6" height="602" fill="#151515" fill-opacity=".07"/><rect x="561" y="394" width="2" height="406" fill="#151515" fill-opacity=".07"/><rect x="594" y="282" width="6" height="518" fill="#151515" fill-opacity=".07"/><rect x="612" y="397" width="3" height="403" fill="#151515" fill-opacity=".07"/><rect x="618" y="420" width="14" height="40" fill="#E5B83F" fill-opacity="0.38"/><rect x="634" y="419" width="6" height="381" fill="#151515" fill-opacity=".07"/><rect x="650" y="255" width="3" height="545" fill="#151515" fill-opacity=".07"/><rect x="672" y="246" width="6" height="554" fill="#151515" fill-opacity=".07"/><rect x="698" y="366" width="3" height="434" fill="#151515" fill-opacity=".07"/><rect x="719" y="460" width="2" height="340" fill="#151515" fill-opacity=".07"/><rect x="749" y="91" width="6" height="709" fill="#151515" fill-opacity=".07"/><rect x="779" y="350" width="2" height="450" fill="#151515" fill-opacity=".07"/><rect x="797" y="405" width="6" height="395" fill="#151515" fill-opacity=".07"/><rect x="813" y="273" width="6" height="527" fill="#151515" fill-opacity=".07"/><rect x="829" y="362" width="2" height="438" fill="#151515" fill-opacity=".07"/><rect x="846" y="495" width="3" height="305" fill="#151515" fill-opacity=".07"/><rect x="863" y="201" width="6" height="599" fill="#151515" fill-opacity=".07"/><rect x="878" y="296" width="6" height="504" fill="#151515" fill-opacity=".07"/><rect x="893" y="243" width="6" height="557" fill="#151515" fill-opacity=".07"/><rect x="913" y="68" width="2" height="732" fill="#151515" fill-opacity=".07"/><rect x="935" y="116" width="6" height="684" fill="#151515" fill-opacity=".07"/><rect x="959" y="467" width="3" height="333" fill="#151515" fill-opacity=".07"/><rect x="965" y="547" width="14" height="91" fill="#E5B83F" fill-opacity="0.23"/><rect x="982" y="113" width="2" height="687" fill="#151515" fill-opacity=".07"/><rect x="1010" y="144" width="6" height="656" fill="#151515" fill-opacity=".07"/><rect x="1044" y="263" width="3" height="537" fill="#151515" fill-opacity=".07"/><rect x="1072" y="379" width="6" height="421" fill="#151515" fill-opacity=".07"/><rect x="1099" y="455" width="6" height="345" fill="#151515" fill-opacity=".07"/><rect x="1124" y="414" width="2" height="386" fill="#151515" fill-opacity=".07"/><rect x="1145" y="336" width="3" height="464" fill="#151515" fill-opacity=".07"/><rect x="1177" y="91" width="3" height="709" fill="#151515" fill-opacity=".07"/><rect x="1183" y="115" width="14" height="69" fill="#E5B83F" fill-opacity="0.31"/></svg>
