<svg xmlns="http://www.w3.org/2000/svg" viewBox="0 0 240 96" width="240" height="96" role="img" aria-label="OFICINA — office"><title>OFICINA — office</title><rect x="1" y="1" width="238" height="94" fill="#E8E0D4" stroke="#151515" stroke-width="2"/><rect x="7" y="7" width="226" height="82" fill="none" stroke="#151515" stroke-width=".75"/><rect x="22" y="18" width="28" height="4" fill="#2C94B8"/><circle cx="216" cy="20" r="3.2" fill="#2C94B8"/><path fill="#151515" d="M47.0185546875 44.1962890625Q47.0185546875 47.8486328125 45.57421875 50.62109375Q44.1298828125 53.3935546875 41.4404296875 54.86279296875Q38.7509765625 56.33203125 35.1650390625 56.33203125Q29.6533203125 56.33203125 26.52392578125 53.08642578125Q23.39453125 49.8408203125 23.39453125 44.1962890625Q23.39453125 38.568359375 26.515625 35.4140625Q29.63671875 32.259765625 35.1982421875 32.259765625Q40.759765625 32.259765625 43.88916015625 35.447265625Q47.0185546875 38.634765625 47.0185546875 44.1962890625ZM42.021484375 44.1962890625Q42.021484375 40.4111328125 40.228515625 38.26123046875Q38.435546875 36.111328125 35.1982421875 36.111328125Q31.9111328125 36.111328125 30.1181640625 38.24462890625Q28.3251953125 40.3779296875 28.3251953125 44.1962890625Q28.3251953125 48.0478515625 30.15966796875 50.26416015625Q31.994140625 52.48046875 35.1650390625 52.48046875Q38.4521484375 52.48046875 40.23681640625 50.322265625Q42.021484375 48.1640625 42.021484375 44.1962890625ZM54.598164062500004 36.3935546875V43.6318359375H66.567890625V47.4169921875H54.598164062500004V56.0H49.700703125000004V32.6083984375H66.9497265625V36.3935546875ZM69.44925781250001 56.0V32.6083984375H74.34671875000001V56.0ZM88.79937500000001 52.48046875Q93.23199218750001 52.48046875 94.95855468750001 48.03125L99.22515625000001 49.6416015625Q97.84722656250001 53.0283203125 95.18267578125001 54.68017578125Q92.51812500000001 56.33203125 88.79937500000001 56.33203125Q83.15484375000001 56.33203125 80.07525390625001 53.13623046875Q76.99566406250001 49.9404296875 76.99566406250001 44.1962890625Q76.99566406250001 38.435546875 79.96734375000001 35.34765625Q82.93902343750001 32.259765625 88.58355468750001 32.259765625Q92.70074218750001 32.259765625 95.29058593750001 33.91162109375Q97.88042968750001 35.5634765625 98.92632812500001 38.767578125L94.60992187500001 39.9462890625Q94.06207031250001 38.1865234375 92.46001953125001 37.14892578125Q90.85796875000001 36.111328125 88.68316406250001 36.111328125Q85.36285156250001 36.111328125 83.64458984375001 38.169921875Q81.92632812500001 40.228515625 81.92632812500001 44.1962890625Q81.92632812500001 48.23046875 83.69439453125001 50.35546875Q85.46246093750001 52.48046875 88.79937500000001 52.48046875ZM101.40925781250002 56.0V32.6083984375H106.30671875000002V56.0ZM124.07968750000002 56.0 113.88632812500002 37.9873046875Q114.18515625000002 40.6103515625 114.18515625000002 42.2041015625V56.0H109.83554687500002V32.6083984375H115.43027343750002L125.77304687500002 50.7705078125Q125.47421875000002 48.263671875 125.47421875000002 46.205078125V32.6083984375H129.82382812500003V56.0ZM149.90441406250002 56.0 147.82921875000002 50.0234375H138.91417968750002L136.83898437500002 56.0H131.94152343750002L140.47472656250002 32.6083984375H146.25207031250002L154.75207031250002 56.0ZM143.36339843750002 36.2109375 143.26378906250002 36.576171875Q143.09777343750002 37.173828125 142.86535156250002 37.9375Q142.63292968750002 38.701171875 140.00988281250002 46.337890625H146.73351562500002L144.42589843750002 39.6142578125L143.71203125000002 37.3564453125Z"/><path fill="#5C5851" d="M29.254638671875 75.049072265625Q29.254638671875 75.962158203125 28.8935546875 76.6552734375Q28.532470703125 77.348388671875 27.860107421875 77.7156982421875Q27.187744140625 78.0830078125 26.291259765625 78.0830078125Q24.913330078125 78.0830078125 24.1309814453125 77.2716064453125Q23.3486328125 76.460205078125 23.3486328125 75.049072265625Q23.3486328125 73.64208984375 24.12890625 72.853515625Q24.9091796875 72.06494140625 26.299560546875 72.06494140625Q27.68994140625 72.06494140625 28.4722900390625 72.86181640625Q29.254638671875 73.65869140625 29.254638671875 75.049072265625ZM28.00537109375 75.049072265625Q28.00537109375 74.102783203125 27.55712890625 73.5653076171875Q27.10888671875 73.02783203125 26.299560546875 73.02783203125Q25.477783203125 73.02783203125 25.029541015625 73.5611572265625Q24.581298828125 74.094482421875 24.581298828125 75.049072265625Q24.581298828125 76.011962890625 25.0399169921875 76.5660400390625Q25.49853515625 77.1201171875 26.291259765625 77.1201171875Q27.113037109375 77.1201171875 27.5592041015625 76.58056640625Q28.00537109375 76.041015625 28.00537109375 75.049072265625ZM32.424541015624996 73.098388671875V74.907958984375H35.416972656249996V75.854248046875H32.424541015624996V78.0H31.20017578125V72.152099609375H35.512431640624996V73.098388671875ZM38.6366796875 73.098388671875V74.907958984375H41.629111328125V75.854248046875H38.6366796875V78.0H37.412314453125V72.152099609375H41.7245703125V73.098388671875ZM43.624453125 78.0V72.152099609375H44.848818359375V78.0ZM49.736982421875005 77.1201171875Q50.845136718750005 77.1201171875 51.276777343750005 76.0078125L52.343427734375005 76.410400390625Q51.998945312500005 77.257080078125 51.332807617187505 77.6700439453125Q50.666669921875005 78.0830078125 49.736982421875005 78.0830078125Q48.325849609375005 78.0830078125 47.555952148437505 77.2840576171875Q46.786054687500005 76.485107421875 46.786054687500005 75.049072265625Q46.786054687500005 73.60888671875 47.528974609375005 72.8369140625Q48.271894531250005 72.06494140625 49.683027343750005 72.06494140625Q50.712324218750005 72.06494140625 51.359785156250005 72.4779052734375Q52.007246093750005 72.890869140625 52.268720703125005 73.69189453125L51.189619140625005 73.986572265625Q51.052656250000005 73.546630859375 50.652143554687505 73.2872314453125Q50.251630859375005 73.02783203125 49.707929687500005 73.02783203125Q48.877851562500005 73.02783203125 48.448286132812505 73.54248046875Q48.018720703125005 74.05712890625 48.018720703125005 75.049072265625Q48.018720703125005 76.0576171875 48.460737304687505 76.5888671875Q48.902753906250005 77.1201171875 49.736982421875005 77.1201171875ZM54.16445312500001 78.0V72.152099609375H58.76308593750001V73.098388671875H55.38881835937501V74.567626953125H58.50991210937501V75.513916015625H55.38881835937501V77.0537109375H58.93325195312501V78.0Z"/></svg>
